<svg width="15" height="13" viewBox="0 0 15 13" fill="none" xmlns="http://www.w3.org/2000/svg">
<path d="M13.4551 7.61515C13.2632 7.08861 13.245 6.51445 13.4032 5.97685C13.4398 5.87311 13.4035 5.75755 13.3142 5.69337C13.2248 5.6292 13.1037 5.63184 13.0171 5.69967C12.6933 5.96405 12.3964 6.26001 12.1312 6.58316C12.094 2.30939 7.18171 -0.086146 3.79375 2.49011C3.69973 2.32925 3.60317 2.17581 3.51413 2.04223V2.04212C3.15055 1.53148 2.97566 0.910364 3.01918 0.285065C3.03598 0.175691 2.9782 0.0684151 2.87755 0.0224559C2.77679 -0.0236135 2.65781 0.00279084 2.5861 0.0870873C2.55638 0.121779 1.87341 0.948263 2.13821 2.80928C2.19124 3.15518 2.1581 3.50882 2.04166 3.83882V3.55424C2.04166 2.45298 0.994862 1.82194 0.950345 1.78483C0.844506 1.73534 0.718561 1.76649 0.648061 1.85963C0.577686 1.95276 0.581886 2.08246 0.658336 2.17085C0.670709 2.18565 0.950325 2.50492 0.789474 3.3142C0.742519 3.58233 0.619778 3.83134 0.435602 4.03187C0.124947 4.38251 -0.0304094 4.84411 0.00494383 5.31131C0.00494383 6.42992 0.663163 7.14504 1.78431 7.29109C1.91645 8.30508 2.34476 9.25749 3.01571 10.0292C3.68665 10.801 4.57026 11.3576 5.55604 11.6294C6.54183 11.9012 7.58597 11.8762 8.55739 11.5574C8.56335 11.5669 8.56998 11.5761 8.57727 11.5847C9.24047 12.2505 10.76 12.3098 11.5469 11.6887C11.6905 11.6887 11.7549 11.6887 11.8786 11.711C13.2868 11.8645 14.2865 11.0602 14.1059 9.46397C14.0415 8.85259 13.69 8.20673 13.4549 7.61523L13.4551 7.61515ZM11.5967 7.21421C11.4493 6.70114 11.3792 6.16909 11.3887 5.63537C11.3914 5.5292 11.326 5.43319 11.2262 5.39684C11.1265 5.36038 11.0147 5.39165 10.9483 5.47451C10.9483 5.48688 10.874 5.56853 10.7824 5.69966C10.4623 4.3559 9.46486 3.2761 8.1506 2.85048C6.83633 2.42491 5.39525 2.71503 4.34801 3.61609C4.25708 3.37823 4.15213 3.146 4.0337 2.92062C7.29779 0.371656 12.1112 3.00978 11.5965 7.20203L11.5967 7.21421ZM8.79767 7.83289C8.88186 8.21151 8.97091 8.82278 8.90164 9.03315C8.80088 9.28946 8.65416 9.52512 8.46857 9.72862C7.45934 10.2257 6.27147 10.2018 5.28311 9.66454C4.29466 9.12728 3.62869 8.14347 3.4969 7.0262C4.53871 6.48917 4.79116 5.24683 4.51894 4.14817H4.51905C5.15233 3.52805 5.99914 3.17417 6.88528 3.15938C7.77155 3.14458 8.62964 3.47004 9.28322 4.06872C9.9368 4.66741 10.3361 5.4938 10.3989 6.37785C10.1271 6.90074 9.95504 7.46981 9.89161 8.05569C9.66844 7.85683 9.41852 7.69022 9.14919 7.56074C9.06434 7.51909 8.96325 7.52936 8.88857 7.58726C8.81389 7.64515 8.77865 7.74049 8.79776 7.83296L8.79767 7.83289ZM0.499858 5.31122C0.465277 4.95769 0.582166 4.60602 0.821572 4.34353C1.05468 4.07861 1.21122 3.75523 1.27443 3.40812C1.31277 3.21655 1.33265 3.02189 1.33387 2.82657C1.47893 3.04178 1.55803 3.29467 1.56157 3.5542C1.58521 3.97843 1.52809 4.40332 1.3932 4.80635C1.34304 4.9102 1.37121 5.03482 1.46114 5.10708C1.55107 5.17922 1.67889 5.17966 1.76937 5.10829C2.4424 4.51767 2.76963 3.62566 2.63806 2.73997C2.56393 2.26601 2.56393 1.78345 2.63806 1.30961C2.73661 1.66865 2.89382 2.00895 3.10328 2.31683C3.5463 2.96524 4.02391 3.90807 4.09317 4.54408C4.259 6.04371 3.51901 6.80106 2.19759 6.80106C1.4229 6.81586 0.499875 6.55348 0.499875 5.31125L0.499858 5.31122ZM2.28664 7.30579C2.53709 7.30369 2.78633 7.27132 3.02905 7.20923C3.20361 8.35965 3.87544 9.37494 4.86586 9.98556C5.8564 10.5962 7.06528 10.7403 8.17153 10.3794C8.14402 10.6312 8.17793 10.886 8.27052 11.1218C7.40778 11.3769 6.48993 11.3791 5.62598 11.1282C4.76204 10.8773 3.98814 10.3839 3.39619 9.70629C2.80435 9.02883 2.41922 8.1956 2.28666 7.3058L2.28664 7.30579ZM10.1512 11.6217C9.71301 11.6544 9.27927 11.5161 8.94098 11.2356C8.75648 11.0502 8.65705 10.7966 8.66633 10.5353C8.66633 10.0403 9.10183 9.94133 9.36667 9.19891C9.43362 8.89776 9.43781 8.58609 9.37904 8.28326C9.8963 8.67922 9.94325 9.04047 9.92846 9.02568C9.95574 9.16234 10.0888 9.25095 10.2254 9.22366C10.3621 9.19637 10.4507 9.06335 10.4234 8.92669C10.2304 7.98132 10.6114 7.02856 10.9431 6.42722C10.9839 6.98625 11.1532 7.52826 11.438 8.01104C11.7896 8.62642 11.945 9.33436 11.8835 10.0403C11.6657 11.149 11.1411 11.6217 10.1512 11.6217H10.1512ZM11.9775 11.2208C12.1767 10.8881 12.3127 10.5214 12.3784 10.1393C12.4947 9.55533 12.2819 8.50356 11.9429 7.88233C12.1392 7.38849 12.4339 6.93973 12.8091 6.56332C12.7448 7.84276 13.5144 8.56287 13.6208 9.51828C13.7519 10.7481 13.0862 11.3273 11.9651 11.2209L11.9775 11.2208Z" fill="#006A6A"/>
<path d="M7.25346 5.38779C7.38471 5.38779 7.51054 5.43994 7.60334 5.53274C7.69626 5.62554 7.7484 5.75149 7.7484 5.88274H8.24334C8.24334 5.62024 8.13905 5.36845 7.95334 5.18274C7.76773 4.99714 7.51595 4.89285 7.25346 4.89285H7.18164V4.2915H6.6867V4.89285H6.61489C6.26124 4.89285 5.93444 5.08155 5.75767 5.38779C5.58079 5.69404 5.58079 6.07144 5.75767 6.37768C5.93444 6.68392 6.26124 6.87263 6.61489 6.87263H6.6867V7.86252H6.61489C6.48364 7.86252 6.3578 7.81037 6.265 7.71757C6.17209 7.62477 6.11994 7.49882 6.11994 7.36757H5.625C5.625 7.63007 5.72929 7.88186 5.91501 8.06756C6.10061 8.25317 6.3524 8.35746 6.61489 8.35746H6.6867V8.9588H7.18165V8.35746H7.25346C7.6071 8.35746 7.93391 8.16876 8.11067 7.86252C8.28755 7.55627 8.28755 7.17887 8.11067 6.87263C7.93391 6.56638 7.6071 6.37768 7.25346 6.37768H7.18165V5.38779H7.25346ZM7.25346 6.87263C7.43022 6.87263 7.59361 6.96697 7.682 7.1201C7.77049 7.27322 7.77049 7.46192 7.682 7.61504C7.59361 7.76817 7.43022 7.86252 7.25346 7.86252H7.18165V6.87263H7.25346ZM6.6867 6.37768H6.61489C6.43813 6.37768 6.27474 6.28333 6.18636 6.13021C6.09786 5.97708 6.09786 5.78839 6.18636 5.63526C6.27474 5.48214 6.43814 5.38779 6.61489 5.38779H6.6867V6.37768Z" fill="#67D168"/>
</svg>
