<svg width="32" height="41" viewBox="0 0 32 41" fill="none" xmlns="http://www.w3.org/2000/svg">
<path d="M5.82935 13.1567L15.5888 1.59906C15.8992 1.23145 16.4331 1.13111 16.8184 1.41929C20.6486 4.28406 21.1094 11.0166 20.8327 14.1858C20.8061 15.6636 21.3594 18.6191 23.7855 18.6191C25.4056 18.6191 26.499 17.3952 27.1417 16.1734C27.5062 15.4806 28.4594 15.2534 28.8302 15.9429C30.4277 18.9129 30.3238 23.5397 30.1667 26.5104C30.1132 27.5208 30.0005 28.5328 29.7082 29.5015C27.307 37.4583 20.1183 38.9897 16.1241 38.9648C12.6925 38.8856 5.11111 36.9223 2.23814 29.7024C-0.634825 22.4824 3.43521 15.6636 5.82935 13.1567Z" stroke="white" stroke-width="2.5" stroke-linecap="round"/>
<path d="M16.2497 19.9651C12.3902 19.9651 9.25 23.1052 9.25 26.9648C9.25 30.8246 12.3899 33.9651 16.2497 33.9651C20.1095 33.9651 23.2494 30.8249 23.2494 26.9654C23.2494 23.1056 20.1095 19.9651 16.2497 19.9651ZM16.2497 32.4109C13.2471 32.4109 10.8045 29.9678 10.8045 26.9654C10.8045 23.9628 13.2471 21.5194 16.2497 21.5194C19.2523 21.5194 21.6949 23.9625 21.6949 26.9649C21.6949 29.9675 19.2523 32.4109 16.2497 32.4109Z" fill="white"/>
<path d="M16.2519 24.6441C16.8719 24.6441 17.455 24.8857 17.8931 25.3241C18.1096 25.5406 18.461 25.5409 18.6781 25.3241C18.8949 25.1075 18.8949 24.7559 18.6781 24.5393C18.3884 24.2493 18.0539 24.0214 17.6929 23.8538V23.1159C17.6929 22.8093 17.4443 22.5608 17.1378 22.5608C16.8312 22.5608 16.5827 22.8093 16.5827 23.1159V23.5503C16.4732 23.5399 16.3629 23.5342 16.2516 23.5342C16.1404 23.5342 16.0301 23.5399 15.9206 23.5503V23.1159C15.9206 22.8093 15.672 22.5608 15.3655 22.5608C15.059 22.5608 14.8104 22.8093 14.8104 23.1159V23.8538C14.4494 24.0214 14.1151 24.2493 13.8252 24.5393C13.1771 25.1873 12.8203 26.0489 12.8203 26.9655C12.8203 27.8824 13.1771 28.744 13.8252 29.3917C14.1151 29.6817 14.4494 29.9096 14.8104 30.0772V30.8151C14.8104 31.1217 15.059 31.3702 15.3655 31.3702C15.672 31.3702 15.9206 31.1217 15.9206 30.8151V30.3807C16.0301 30.3911 16.1404 30.3968 16.2516 30.3968C16.3629 30.3968 16.4734 30.3911 16.5827 30.3807V30.8151C16.5827 31.1217 16.8312 31.3702 17.1378 31.3702C17.4443 31.3702 17.6929 31.1217 17.6929 30.8151V30.0772C18.0539 29.9097 18.3882 29.6817 18.6781 29.3917C18.8947 29.1749 18.8947 28.8233 18.6781 28.6069C18.4613 28.3901 18.1099 28.3901 17.8931 28.6069C17.4547 29.0456 16.8716 29.2869 16.2519 29.2869C15.6319 29.2869 15.0488 29.0453 14.6104 28.6069C14.1721 28.1683 13.9304 27.5855 13.9304 26.9655C13.9304 26.3453 14.1718 25.7624 14.6104 25.3241C15.0488 24.8857 15.6319 24.6441 16.2519 24.6441Z" fill="white"/>
</svg>
