<svg width="29" height="25" viewBox="0 0 29 25" fill="none" xmlns="http://www.w3.org/2000/svg">
<path d="M27.5209 9.07051L24.637 12.0165V5.48979C24.5924 3.51351 23.5337 1.70676 21.8487 0.731469C20.1638 -0.243823 18.1006 -0.243823 16.416 0.731469C14.731 1.70676 13.6723 3.51357 13.6277 5.48979V19.5073C13.6559 20.5435 13.2724 21.5473 12.5641 22.2904C11.8557 23.0335 10.8832 23.4528 9.86743 23.4528C8.85148 23.4528 7.87888 23.0335 7.17058 22.2904C6.46243 21.5473 6.07879 20.5434 6.10698 19.5073V12.9806L8.97639 15.9293C9.19641 16.1546 9.51763 16.2428 9.81894 16.1608C10.1201 16.0789 10.3557 15.8391 10.4366 15.532C10.5177 15.2247 10.4319 14.8967 10.2117 14.6715L5.85099 10.2037C5.68735 10.0361 5.46509 9.94195 5.23333 9.94195C5.00157 9.94195 4.77929 10.0361 4.61566 10.2037L0.25494 14.6715C0.0347131 14.8967 -0.0510634 15.2247 0.0300512 15.532C0.110963 15.8391 0.346603 16.0789 0.647717 16.1608C0.949058 16.2428 1.27026 16.1546 1.49027 15.9293L4.37411 12.9833V19.51L4.37431 19.5102C4.41872 21.4865 5.47747 23.2932 7.16242 24.2685C8.84738 25.2438 10.9105 25.2438 12.5957 24.2685C14.2804 23.2932 15.3394 21.4864 15.3838 19.5102V5.4927C15.4205 4.14721 16.145 2.91943 17.2936 2.25723C18.442 1.59503 19.8465 1.59503 20.9949 2.25723C22.1433 2.91943 22.868 4.14721 22.9045 5.4927V12.0194L20.0235 9.07071C19.8035 8.84536 19.4823 8.7572 19.181 8.83915C18.8799 8.9211 18.6442 9.16094 18.5633 9.46803C18.4822 9.77534 18.568 10.1033 18.7882 10.3285L23.0092 14.6539C23.1119 14.8354 23.2737 14.9742 23.4665 15.046C23.6594 15.1178 23.8709 15.1178 24.0639 15.046C24.2568 14.9742 24.4186 14.8354 24.521 14.6539L28.7451 10.3285C28.9653 10.1033 29.0511 9.77535 28.9699 9.46803C28.889 9.16093 28.6534 8.9211 28.3523 8.83915C28.0509 8.7572 27.7297 8.84536 27.5097 9.07071L27.5209 9.07051Z" fill="#006A6A"/>
</svg>
