<svg width="29" height="34" viewBox="0 0 29 34" fill="none" xmlns="http://www.w3.org/2000/svg">
<path d="M10.4147 10.8313C10.5083 10.7637 10.5981 10.6852 10.6881 10.6104H10.6879C10.8358 10.9238 10.9562 11.2491 11.0475 11.5832C11.1514 11.8463 11.3207 12.0795 11.5401 12.2602C11.8421 12.4704 12.0327 12.1071 12.0616 11.5477C12.0816 11.0518 12.0272 10.5557 11.8995 10.0761C11.8672 9.95131 11.8276 9.82306 11.7844 9.69482H11.7847C11.7345 9.52657 11.6445 9.37272 11.5221 9.24597C11.2181 8.94773 10.7771 8.83241 10.3643 8.94301C10.2575 8.96985 10.1547 9.01036 10.0586 9.06404C10.01 9.09063 9.96305 9.12046 9.91841 9.15326L9.82863 9.21738C9.72554 9.28622 9.6212 9.35159 9.51587 9.41323C9.30594 9.54445 9.08874 9.6635 8.865 9.76963C8.43511 9.97541 7.97541 10.1126 7.50208 10.1757C6.97513 10.2374 6.44137 10.1407 5.97042 9.89787C5.47532 9.63393 5.04166 9.26982 4.69757 8.82891C3.93916 7.84075 3.35199 6.73426 2.96096 5.55446C2.6013 4.50688 2.27774 3.41655 2.00088 2.31208L2.56169 2.20173C2.889 2.1304 3.21255 2.09138 3.53956 2.03422C3.86687 1.97731 4.19043 1.92014 4.51743 1.88808C4.84474 1.85602 5.16451 1.84533 5.48452 1.84186H6.44134C7.39539 1.85329 8.34199 2.00689 9.24963 2.29792L9.40788 2.35135L9.5516 2.41895L9.83928 2.55068C9.92906 2.60063 10.0083 2.65755 10.0911 2.71098L10.217 2.78927L10.3248 2.88197L10.3246 2.88222C10.615 3.10441 10.8448 3.39445 10.9935 3.72671C11.1513 4.07491 11.2403 4.44993 11.2558 4.83117C11.2624 5.07001 11.2443 5.3086 11.2019 5.5437C10.6893 5.32698 10.1633 5.14257 9.62711 4.99146C9.0959 4.82793 8.53958 4.75808 7.9838 4.78493C7.5524 4.82768 7.28632 4.96661 7.26474 5.21961C7.31516 5.68288 8.03773 6.13893 9.1453 6.56642C9.63789 6.75804 10.1182 6.97924 10.5834 7.22901L10.9177 7.42137L11.0005 7.47133H11.0221L11.0833 7.50339C11.1297 7.527 11.1778 7.54738 11.2272 7.56403C11.4261 7.63586 11.6403 7.65549 11.8492 7.62094C12.2764 7.55011 12.6366 7.26604 12.8021 6.86915C12.8741 6.70164 12.9242 6.56271 12.9782 6.40241C13.1908 5.76715 13.2764 5.09664 13.23 4.42858C13.1748 3.73666 12.9634 3.06561 12.6115 2.46544C12.3138 1.98353 11.9255 1.56273 11.468 1.22552C11.2445 1.06994 11.0128 0.926039 10.774 0.794565C10.533 0.687694 10.2922 0.570141 10.0549 0.484643V0.484394C9.11289 0.169503 8.12596 0.005968 7.13178 0C5.25571 0.00323093 3.38671 0.223431 1.56207 0.655398L1.25283 0.68398H0.968908L0.857548 0.712561C0.570118 0.799549 0.325836 0.989182 0.171816 1.24467C0.0175712 1.49992 -0.0353547 1.80313 0.023337 2.09489L0.246309 3.33481H0.246058C0.409587 4.1562 0.621015 4.96767 0.879102 5.7647C1.40756 7.36798 2.11233 8.99264 3.42832 10.3966C4.13382 11.1579 5.05507 11.6908 6.07108 11.9251C7.1079 12.1361 8.18567 12.0111 9.14525 11.5689C9.59345 11.3684 10.019 11.1211 10.4146 10.8313L10.4147 10.8313ZM26.8534 5.00224C26.9949 5.2806 27.0403 5.59723 26.9828 5.90367V6.07467L26.9505 6.20291L26.6917 7.2398C26.3237 8.64101 25.8118 10.0008 25.1635 11.2981L24.9046 11.7897L24.5738 12.2743C24.3692 12.5972 24.1472 12.9089 23.9087 13.2078C23.3955 13.8426 22.763 14.3728 22.0462 14.7684C21.2752 15.176 20.3966 15.3388 19.5291 15.2351C18.7202 15.1166 17.9487 14.8196 17.271 14.3657C16.9979 14.1885 16.7403 13.9882 16.5016 13.7673L16.4153 13.6853L16.3722 13.6425V13.6246C16.3644 13.6102 16.3516 13.599 16.3363 13.5926C16.3162 13.5871 16.2952 13.5871 16.2751 13.5926C16.2633 13.5901 16.251 13.5901 16.2392 13.5926C16.2392 13.5926 16.2104 13.6318 16.1926 13.6495L16.1386 13.7278V13.728C15.9952 13.9348 15.8633 14.1488 15.7431 14.3695C15.325 15.1832 15.0053 16.0431 14.7903 16.9311H14.9664C16.0298 16.994 17.035 17.4327 17.7998 18.1676C18.1534 18.485 18.3879 18.9122 18.4649 19.379C18.5213 19.6481 18.4162 19.9255 18.1953 20.0915C17.9643 20.1919 17.6956 20.1516 17.5048 19.9884C17.2675 19.8387 17.0122 19.632 16.728 19.4147L16.7282 19.4145C16.2392 19.0516 15.649 18.8476 15.0383 18.8302C14.4268 18.8155 13.8226 18.9656 13.2907 19.2649C12.8104 19.544 12.4517 19.9896 12.2839 20.5155C12.1971 20.7846 12.1605 21.0672 12.176 21.3493C12.1778 21.607 12.2367 21.8613 12.3486 22.0939C12.5229 22.4115 12.769 22.6847 13.0679 22.8919C13.4557 23.1019 13.8657 23.2692 14.2904 23.3907C14.5096 23.4583 14.7398 23.5155 14.9736 23.5689C15.2074 23.6224 15.5274 23.7007 15.8043 23.7827H15.804C16.3909 23.9489 16.954 24.1883 17.4797 24.4955C18.0666 24.8377 18.5662 25.3097 18.9394 25.8743C19.3166 26.4723 19.515 27.1642 19.5112 27.8695C19.5155 28.5346 19.3615 29.1912 19.0618 29.7865C18.4473 30.9462 17.3302 31.7628 16.0305 32.0027L15.8364 32.0347C15.937 32.4801 15.725 32.9255 15.5811 33.3709C15.5164 33.5739 15.2645 33.77 14.7002 33.9338C14.483 33.9942 14.256 34.0136 14.0316 33.9907C13.8949 33.9907 13.7042 33.9373 13.7115 33.9124C13.8444 33.3281 13.4813 32.7366 14.1106 32.1558C14.1106 32.0882 14.0782 32.0203 14.0601 31.9493C13.7363 31.8603 13.4266 31.7273 13.1397 31.5536C12.3973 31.1201 11.8799 30.3902 11.7196 29.5511C11.6802 29.3707 11.6993 29.1826 11.7735 29.0133C11.8342 28.8883 11.9762 28.8239 12.1114 28.86C12.3128 28.9039 12.4966 29.0056 12.6401 29.1522C12.8856 29.5317 13.229 29.8397 13.6348 30.044C14.0406 30.248 14.494 30.3412 14.9482 30.3137C15.8629 30.3189 16.7145 29.8519 17.1955 29.0809C17.2966 28.898 17.3728 28.7029 17.422 28.5001C17.4671 28.2884 17.4864 28.0716 17.4797 27.8551C17.4759 27.4575 17.338 27.0725 17.0876 26.7614C16.9414 26.5862 16.7761 26.4273 16.5951 26.2877C16.3886 26.1366 16.1709 26.0009 15.9442 25.8813C15.6981 25.7488 15.4448 25.63 15.1858 25.5252C14.9197 25.4111 14.6573 25.3221 14.3265 25.1973H14.3262C13.569 25.0316 12.8417 24.7527 12.169 24.3707C11.8051 24.1548 11.4725 23.8913 11.1801 23.5869C10.8728 23.2556 10.6293 22.8716 10.461 22.4538C10.3043 22.0363 10.2215 21.5951 10.2165 21.1497C10.214 20.7158 10.2744 20.2839 10.3963 19.8671C10.5308 19.4436 10.7309 19.0432 10.9895 18.6806C11.6476 17.7998 12.6245 17.206 13.715 17.0239C13.7133 16.993 13.7133 16.962 13.715 16.9312V16.614V16.2576C13.715 16.0225 13.7509 15.7837 13.7832 15.5451V15.5453C13.8489 15.0687 13.9573 14.5989 14.107 14.1414C14.2583 13.6776 14.4557 13.2303 14.6967 12.8053L14.7218 12.7625L14.7722 12.6842C14.8058 12.6308 14.8432 12.5796 14.8835 12.5309C14.9646 12.4312 15.0563 12.3405 15.1569 12.2602C15.4576 12.0167 15.8286 11.8743 16.2163 11.8531C16.6038 11.832 16.9883 11.9334 17.3142 12.1427C17.3683 12.1757 17.42 12.2128 17.4689 12.253L17.5768 12.342L17.6738 12.424L17.8752 12.5809C18.0099 12.6813 18.1504 12.7742 18.2958 12.8587C18.5805 13.0267 18.8847 13.1594 19.202 13.2544C19.7585 13.4251 20.3587 13.3911 20.8919 13.158C21.475 12.8515 21.9794 12.4163 22.3659 11.886C22.8184 11.283 23.2099 10.6373 23.5347 9.95859C23.869 9.24606 24.1855 8.53352 24.4659 7.78167C24.5989 7.4039 24.7571 7.03707 24.883 6.65208L25.0807 6.07846L25.1419 5.90399L24.6997 5.83266L24.031 5.72579L23.3621 5.6224L22.6935 5.54759L22.0283 5.50832C21.5824 5.46905 21.1438 5.47278 20.7051 5.47626H20.7049C19.8558 5.47278 19.0099 5.57816 18.188 5.78991C17.4582 5.94997 16.7985 6.33544 16.3039 6.89068C15.7677 7.59304 15.5668 8.49199 15.7539 9.35289C15.7539 9.39912 15.7755 9.4456 15.7862 9.49531C16.2843 9.27287 16.7958 9.08125 17.3179 8.92169C18.5981 8.52975 19.6083 8.71516 19.7196 9.14611C19.8348 9.37775 19.6333 9.5987 19.2953 9.81246H19.2955C18.8548 10.0617 18.3956 10.2775 17.9218 10.4574C17.4545 10.6466 16.9983 10.8618 16.5557 11.1024L16.2391 11.2841L16.1995 11.3054C16.1483 11.3343 16.0954 11.3604 16.0413 11.3837C15.6981 11.5269 15.3124 11.5329 14.965 11.3999C14.6176 11.2669 14.3357 11.0057 14.1787 10.6712L14.1321 10.5643L14.1105 10.5074C14.0493 10.3543 13.9954 10.201 13.9487 10.0441C13.7458 9.39071 13.6774 8.70382 13.7473 8.0238C13.8168 7.31725 14.0518 6.63621 14.434 6.03578C14.8303 5.42762 15.3648 4.91987 15.9946 4.55352C16.5662 4.2262 17.1844 3.98587 17.8283 3.84099C19.0039 3.59518 20.2087 3.51963 21.4061 3.61656C22.1292 3.66826 22.8493 3.75649 23.5633 3.88001C24.2824 3.94065 25.0014 4.07237 25.6992 4.18645L25.8322 4.20782H25.8753L25.9975 4.23988H25.9977C26.0729 4.26225 26.1464 4.29108 26.2169 4.32538C26.4986 4.47624 26.721 4.71583 26.8497 5.0061L26.8534 5.00224ZM23.3799 21.8055C23.3198 21.987 23.2929 22.1776 23.3009 22.3685C23.3032 22.5337 23.3411 22.6965 23.4123 22.8459C23.5277 23.0666 23.694 23.257 23.8979 23.4016C24.1868 23.5507 24.4903 23.6703 24.8038 23.758C24.9691 23.808 25.1419 23.8507 25.3179 23.8897C25.494 23.929 25.7601 23.9931 25.9796 24.0572C26.4554 24.1969 26.9111 24.397 27.3352 24.6522C27.8167 24.9403 28.2253 25.334 28.5288 25.8032C28.8428 26.3045 29.0063 26.8841 28.9998 27.4741C29.0046 28.2766 28.7239 29.0551 28.207 29.6727C27.6903 30.2903 26.9702 30.7079 26.1737 30.852C26.1546 31.1743 26.0598 31.488 25.8968 31.7676C25.8321 31.9244 25.5803 32.0812 25.0159 32.2057V32.206C24.7965 32.254 24.5712 32.2696 24.3473 32.2522C24.2377 32.2522 24.1291 32.2316 24.0272 32.1916C24.1602 31.7355 23.797 31.276 24.4263 30.8234L24.4082 30.7628V30.763C24.1877 30.687 23.9776 30.5841 23.7827 30.4566C23.1948 30.087 22.8123 29.4687 22.7471 28.782C22.7255 28.4256 22.8908 28.1728 23.1858 28.1904C23.3515 28.1929 23.5121 28.2493 23.6425 28.3507C23.8108 28.6122 24.0473 28.8235 24.3272 28.9621C24.6071 29.1008 24.9196 29.1617 25.2316 29.1381C25.8611 29.1461 26.449 28.8272 26.7814 28.2973C26.8481 28.176 26.8988 28.0465 26.9324 27.9126C26.9635 27.7687 26.978 27.6215 26.9755 27.4742C26.9765 27.2174 26.8932 26.9674 26.7382 26.7616C26.5163 26.4882 26.2411 26.2618 25.9291 26.0953C25.7463 25.9894 25.5579 25.893 25.3648 25.8067C25.1671 25.714 24.9693 25.6392 24.7031 25.5289C24.0944 25.3957 23.51 25.171 22.97 24.8625C22.6711 24.6876 22.3977 24.4731 22.1574 24.2248C21.9039 23.9509 21.7027 23.6333 21.5643 23.2878C21.4349 22.9456 21.3656 22.5842 21.3591 22.2189C21.3541 21.8575 21.4025 21.4974 21.5031 21.1499C21.6132 20.7987 21.7782 20.467 21.9922 20.1665C22.2139 19.8784 22.4782 19.6251 22.7759 19.4147C23.2542 19.0784 23.8085 18.8632 24.3904 18.7876L24.4371 18.7449C24.3378 18.4658 24.263 18.1785 24.2141 17.8862C24.2269 17.6948 24.2916 17.5101 24.4012 17.3518C24.4551 17.2522 24.7895 17.1843 25.2462 17.1774C25.7029 17.1702 25.9976 17.2487 26.0623 17.3449V17.3446C26.2542 17.6501 26.2938 18.0256 26.1702 18.3636C26.1702 18.4171 26.1305 18.4705 26.109 18.5239C26.1619 18.6552 26.1817 18.7971 26.1666 18.9373C26.6813 19.1135 27.1496 19.402 27.5366 19.7817C27.8263 20.0444 28.0048 20.4058 28.0362 20.7935C28.062 21.0465 27.9371 21.2913 27.7161 21.4208C27.5127 21.5225 27.2727 21.5225 27.0691 21.4208C26.8549 21.3204 26.6502 21.2011 26.4578 21.0644C26.1185 20.8181 25.7132 20.6767 25.2928 20.6583C24.8654 20.6563 24.4451 20.7657 24.0739 20.9754C23.7476 21.1584 23.5008 21.4539 23.3799 21.8055L23.3799 21.8055ZM5.53873 30.8485C5.51941 31.1709 5.42486 31.4843 5.26183 31.7641C5.19712 31.921 4.94531 32.0778 4.38097 32.2023C4.16151 32.2505 3.93604 32.2659 3.71206 32.2488C3.60271 32.2485 3.49411 32.2281 3.39203 32.1881C3.52496 31.7321 3.16179 31.2725 3.79107 30.8199L3.77301 30.7593H3.77326C3.5528 30.6833 3.34262 30.5804 3.14774 30.4529C2.55784 30.0858 2.17282 29.4689 2.10489 28.7819C2.08332 28.4255 2.2486 28.1728 2.54355 28.1904C2.70933 28.1929 2.86985 28.2493 3.00028 28.3507C3.16807 28.6117 3.40433 28.8227 3.6835 28.9611C3.96266 29.0998 4.27441 29.161 4.58593 29.1381C5.21547 29.146 5.80336 28.8272 6.1357 28.2973C6.20242 28.176 6.25308 28.0465 6.28669 27.9126C6.31779 27.7687 6.33234 27.6215 6.32983 27.4741C6.33083 27.2174 6.24757 26.9674 6.09257 26.7616C5.87035 26.4882 5.59521 26.2618 5.28343 26.0953C5.10058 25.9894 4.91223 25.893 4.71885 25.8067C4.52122 25.714 4.32333 25.6392 4.0572 25.5289H4.05745C3.44999 25.3949 2.86686 25.1705 2.32784 24.8625C2.02888 24.6875 1.75549 24.4731 1.51524 24.2248C1.26167 23.9509 1.06052 23.6333 0.922071 23.2878C0.792655 22.9456 0.723427 22.5842 0.71691 22.2188C0.711894 21.8575 0.7603 21.4973 0.860875 21.1499C0.970977 20.7987 1.13602 20.4669 1.34995 20.1664C1.56941 19.8737 1.83251 19.6154 2.12994 19.4005C2.60848 19.0642 3.16278 18.8487 3.74443 18.7734L3.79108 18.7307H3.79133C3.69803 18.4508 3.62931 18.1635 3.58642 17.872C3.59896 17.6804 3.66367 17.4957 3.77327 17.3376C3.8272 17.238 4.16153 17.1701 4.61824 17.1632C5.07496 17.156 5.36966 17.2345 5.43438 17.3307V17.3304C5.62625 17.6356 5.66587 18.0114 5.54222 18.3494C5.54222 18.4029 5.5026 18.4563 5.48103 18.5097H5.48128C5.5342 18.6407 5.55376 18.7826 5.53871 18.9231C6.05362 19.099 6.52166 19.3878 6.90864 19.7675C7.19832 20.03 7.3769 20.3916 7.4085 20.7793C7.43433 21.0323 7.30943 21.2771 7.08847 21.4064C6.88481 21.508 6.64478 21.508 6.44113 21.4064C6.22694 21.3062 6.02253 21.1869 5.82991 21.0502C5.47928 20.8086 5.06341 20.6769 4.6363 20.6724C4.20893 20.6707 3.78858 20.7801 3.41739 20.9896C3.09711 21.1767 2.85684 21.4732 2.74149 21.8234C2.67578 21.9978 2.64166 22.1823 2.64066 22.3684C2.64292 22.5337 2.68104 22.6965 2.75227 22.8458C2.8674 23.0665 3.03368 23.2569 3.23759 23.4016C3.52652 23.5507 3.83025 23.6702 4.14374 23.758C4.30903 23.8079 4.48183 23.8507 4.6579 23.8897C4.83397 23.929 5.10008 23.9931 5.31956 24.0572C5.79534 24.1969 6.25082 24.3969 6.6749 24.6522C7.16022 24.9378 7.57233 25.3304 7.87956 25.7997C8.19357 26.301 8.35685 26.8805 8.35057 27.4706C8.35534 28.2731 8.07443 29.0513 7.55774 29.6691C7.04083 30.2867 6.32099 30.7043 5.52443 30.8484L5.53873 30.8485Z" fill="white"/>
</svg>
