<svg width="29" height="29" viewBox="0 0 29 29" fill="none" xmlns="http://www.w3.org/2000/svg">
<path d="M14.5042 2.90554C14.1197 2.90554 13.7509 3.05829 13.479 3.33018C13.2071 3.60208 13.0543 3.97085 13.0543 4.35537C13.0543 6.80848 10.088 8.03793 8.35255 6.30249C8.2188 6.16401 8.05882 6.05356 7.88194 5.97758C7.70505 5.9016 7.51481 5.8616 7.3223 5.85993C7.12979 5.85825 6.93888 5.89494 6.7607 5.96784C6.58252 6.04073 6.42065 6.14839 6.28452 6.28452C6.14839 6.42065 6.04073 6.58252 5.96784 6.7607C5.89494 6.93888 5.85825 7.12979 5.85993 7.3223C5.8616 7.51481 5.9016 7.70505 5.97758 7.88194C6.05356 8.05882 6.16401 8.2188 6.30249 8.35255C8.03793 10.088 6.80993 13.0543 4.35537 13.0543C3.97085 13.0543 3.60208 13.2071 3.33018 13.479C3.05829 13.7509 2.90554 14.1197 2.90554 14.5042C2.90554 14.8887 3.05829 15.2575 3.33018 15.5294C3.60208 15.8012 3.97085 15.954 4.35537 15.954C6.80848 15.954 8.03793 18.9203 6.30249 20.6558C6.03839 20.9292 5.89226 21.2955 5.89556 21.6756C5.89886 22.0557 6.05134 22.4194 6.32015 22.6882C6.58896 22.957 6.95259 23.1095 7.33273 23.1128C7.71288 23.1161 8.07911 22.9699 8.35255 22.7059C10.088 20.9704 13.0543 22.1984 13.0543 24.653C13.0543 25.0375 13.2071 25.4063 13.479 25.6782C13.7509 25.9501 14.1197 26.1028 14.5042 26.1028C14.8887 26.1028 15.2575 25.9501 15.5294 25.6782C15.8012 25.4063 15.954 25.0375 15.954 24.653C15.954 22.1999 18.9203 20.9704 20.6558 22.7059C20.7895 22.8443 20.9495 22.9548 21.1264 23.0308C21.3033 23.1067 21.4935 23.1467 21.686 23.1484C21.8785 23.1501 22.0695 23.1134 22.2476 23.0405C22.4258 22.9676 22.5877 22.86 22.7238 22.7238C22.86 22.5877 22.9676 22.4258 23.0405 22.2476C23.1134 22.0695 23.1501 21.8785 23.1484 21.686C23.1467 21.4935 23.1067 21.3033 23.0308 21.1264C22.9548 20.9495 22.8443 20.7895 22.7059 20.6558C20.9704 18.9203 22.1984 15.954 24.653 15.954C25.0375 15.954 25.4063 15.8012 25.6782 15.5294C25.9501 15.2575 26.1028 14.8887 26.1028 14.5042C26.1028 14.1197 25.9501 13.7509 25.6782 13.479C25.4063 13.2071 25.0375 13.0543 24.653 13.0543C22.1999 13.0543 20.9704 10.088 22.7059 8.35255C22.9699 8.07911 23.1161 7.71288 23.1128 7.33273C23.1095 6.95259 22.957 6.58896 22.6882 6.32015C22.4194 6.05134 22.0557 5.89886 21.6756 5.89556C21.2955 5.89226 20.9292 6.03839 20.6558 6.30249C18.9203 8.03793 15.954 6.80993 15.954 4.35537C15.954 3.97085 15.8012 3.60208 15.5294 3.33018C15.2575 3.05829 14.8887 2.90554 14.5042 2.90554ZM10.1663 4.03206C10.2465 2.93638 10.7383 1.91163 11.543 1.16368C12.3477 0.415735 13.4056 0 14.5042 0C15.6028 0 16.6607 0.415735 17.4654 1.16368C18.27 1.91163 18.7619 2.93638 18.8421 4.03206C19.674 3.31756 20.7451 2.94368 21.8409 2.98529C22.9368 3.0269 23.9765 3.48093 24.7518 4.25646C25.5272 5.03199 25.981 6.07178 26.0223 7.16764C26.0637 8.26349 25.6895 9.33453 24.9748 10.1663C26.0705 10.2463 27.0954 10.7379 27.8434 11.5425C28.5915 12.347 29.0074 13.4049 29.0076 14.5035C29.0078 15.6021 28.5922 16.6601 27.8444 17.4649C27.0966 18.2697 26.0719 18.7617 24.9763 18.8421C25.6908 19.674 26.0647 20.7451 26.023 21.8409C25.9814 22.9368 25.5274 23.9765 24.7519 24.7518C23.9764 25.5272 22.9366 25.981 21.8407 26.0223C20.7448 26.0637 19.6738 25.6895 18.8421 24.9748C18.7619 26.0705 18.27 27.0953 17.4654 27.8432C16.6607 28.5912 15.6028 29.0069 14.5042 29.0069C13.4056 29.0069 12.3477 28.5912 11.543 27.8432C10.7383 27.0953 10.2465 26.0705 10.1663 24.9748C9.33453 25.6895 8.26349 26.0637 7.16764 26.0223C6.07178 25.981 5.03199 25.5272 4.25646 24.7518C3.48093 23.9765 3.0269 22.9368 2.98529 21.8409C2.94368 20.7451 3.31756 19.674 4.03206 18.8421C2.93638 18.7619 1.91163 18.27 1.16368 17.4654C0.415735 16.6607 0 15.6028 0 14.5042C0 13.4056 0.415735 12.3477 1.16368 11.543C1.91163 10.7383 2.93638 10.2465 4.03206 10.1663C3.31538 9.33467 2.93968 8.26281 2.98034 7.16574C3.021 6.06868 3.47502 5.02757 4.25129 4.25129C5.02757 3.47502 6.06868 3.021 7.16574 2.98034C8.26281 2.93968 9.33467 3.31538 10.1663 4.03206Z" fill="white"/>
<path d="M14.5093 11.6047C13.7403 11.6047 13.0027 11.9102 12.4589 12.454C11.9151 12.9978 11.6096 13.7353 11.6096 14.5044C11.6096 15.2734 11.9151 16.0109 12.4589 16.5547C13.0027 17.0985 13.7403 17.404 14.5093 17.404C15.2783 17.404 16.0159 17.0985 16.5597 16.5547C17.1035 16.0109 17.409 15.2734 17.409 14.5044C17.409 13.7353 17.1035 12.9978 16.5597 12.454C16.0159 11.9102 15.2783 11.6047 14.5093 11.6047ZM10.4092 10.4043C10.9442 9.85036 11.5841 9.40855 12.2916 9.10462C12.9992 8.80068 13.7601 8.6407 14.5302 8.63401C15.3002 8.62732 16.0639 8.77405 16.7766 9.06564C17.4893 9.35724 18.1368 9.78786 18.6813 10.3324C19.2258 10.8769 19.6564 11.5244 19.948 12.2371C20.2396 12.9498 20.3864 13.7135 20.3797 14.4835C20.373 15.2535 20.213 16.0145 19.9091 16.7221C19.6051 17.4296 19.1633 18.0695 18.6094 18.6045C17.5157 19.6609 16.0507 20.2454 14.5302 20.2322C13.0096 20.219 11.5551 19.6091 10.4798 18.5338C9.40459 17.4586 8.79468 16.0041 8.78147 14.4835C8.76826 12.9629 9.35279 11.498 10.4092 10.4043Z" fill="white"/>
</svg>
