<svg width="29" height="29" viewBox="0 0 29 29" fill="none" xmlns="http://www.w3.org/2000/svg">
<path d="M14.4275 23.2C14.935 23.2 15.3642 23.0245 15.7151 22.6736C16.065 22.3237 16.24 21.895 16.24 21.3875C16.24 20.88 16.065 20.4513 15.7151 20.1014C15.3642 19.7505 14.935 19.575 14.4275 19.575C13.92 19.575 13.4908 19.7505 13.1399 20.1014C12.79 20.4513 12.615 20.88 12.615 21.3875C12.615 21.895 12.79 22.3237 13.1399 22.6736C13.4908 23.0245 13.92 23.2 14.4275 23.2ZM14.645 8.265C15.3217 8.265 15.8654 8.45205 16.2763 8.82615C16.6871 9.20122 16.8925 9.69083 16.8925 10.295C16.8925 10.7058 16.7538 11.1225 16.4764 11.5449C16.198 11.9683 15.805 12.4096 15.2975 12.8688C14.5725 13.4971 14.0408 14.1013 13.7025 14.6813C13.3642 15.2613 13.195 15.8413 13.195 16.4212C13.195 16.7596 13.3221 17.0433 13.5764 17.2724C13.8296 17.5025 14.1254 17.6175 14.4638 17.6175C14.8021 17.6175 15.1042 17.4967 15.37 17.255C15.6358 17.0133 15.805 16.7113 15.8775 16.3487C15.95 15.9379 16.1134 15.5575 16.3676 15.2076C16.6209 14.8567 17.0375 14.4033 17.6175 13.8475C18.3667 13.1467 18.8925 12.5063 19.1951 11.9263C19.4967 11.3463 19.6475 10.7058 19.6475 10.005C19.6475 8.7725 19.1825 7.7633 18.2526 6.9774C17.3217 6.19247 16.1192 5.8 14.645 5.8C13.63 5.8 12.73 5.99333 11.9451 6.38C11.1592 6.76667 10.5488 7.35875 10.1138 8.15625C9.94458 8.47042 9.88417 8.7783 9.9325 9.0799C9.98083 9.38247 10.15 9.63042 10.44 9.82375C10.7542 10.0171 11.0988 10.0775 11.4739 10.005C11.848 9.9325 12.1558 9.72708 12.3975 9.38875C12.6633 9.02625 12.9838 8.74833 13.3589 8.555C13.733 8.36167 14.1617 8.265 14.645 8.265ZM14.5 29C12.5183 29 10.6454 28.6191 8.88125 27.8574C7.11708 27.0966 5.5767 26.0638 4.2601 24.7588C2.94253 23.4538 1.90337 21.9192 1.1426 20.155C0.380867 18.3908 0 16.5058 0 14.5C0 12.4942 0.380867 10.6092 1.1426 8.845C1.90337 7.08083 2.94253 5.54625 4.2601 4.24125C5.5767 2.93625 7.11708 1.90288 8.88125 1.14115C10.6454 0.380383 12.5183 0 14.5 0C16.53 0 18.4271 0.380383 20.1913 1.14115C21.9554 1.90288 23.49 2.93625 24.795 4.24125C26.1 5.54625 27.1271 7.08083 27.8763 8.845C28.6254 10.6092 29 12.4942 29 14.5C29 16.5058 28.6254 18.3908 27.8763 20.155C27.1271 21.9192 26.1 23.4538 24.795 24.7588C23.49 26.0638 21.9554 27.0966 20.1913 27.8574C18.4271 28.6191 16.53 29 14.5 29ZM14.5 26.1C17.7383 26.1 20.4812 24.9705 22.7288 22.7114C24.9762 20.4513 26.1 17.7142 26.1 14.5C26.1 11.2858 24.9762 8.54872 22.7288 6.28865C20.4812 4.02955 17.7383 2.9 14.5 2.9C11.3342 2.9 8.60913 4.02955 6.3249 6.28865C4.04163 8.54872 2.9 11.2858 2.9 14.5C2.9 17.7142 4.04163 20.4513 6.3249 22.7114C8.60913 24.9705 11.3342 26.1 14.5 26.1Z" fill="white"/>
</svg>
