<svg width="32" height="28" viewBox="0 0 32 28" fill="none" xmlns="http://www.w3.org/2000/svg">
<path d="M19.375 20V23.125C19.375 23.9538 19.0567 24.7487 18.4902 25.3347C17.9237 25.9208 17.1553 26.25 16.3542 26.25H4.27083C3.46966 26.25 2.7013 25.9208 2.13478 25.3347C1.56827 24.7487 1.25 23.9538 1.25 23.125V4.375C1.25 3.5462 1.56827 2.75134 2.13478 2.16529C2.7013 1.57924 3.46966 1.25 4.27083 1.25H15.75C17.4183 1.25 19.375 2.64922 19.375 4.375V7.5M24.2083 20L30.25 13.75L24.2083 7.5M9.70833 13.75H29.0417" stroke="white" stroke-width="2.5" stroke-linecap="round" stroke-linejoin="round"/>
</svg>
