<svg width="7" height="6" viewBox="0 0 7 6" fill="none" xmlns="http://www.w3.org/2000/svg">
<circle cx="0.674531" cy="1.93527" r="0.2925" stroke="#67D168" stroke-width="0.225"/>
<circle cx="4.99484" cy="0.405" r="0.2925" stroke="#67D168" stroke-width="0.225"/>
<circle cx="0.315" cy="3.91461" r="0.2025" stroke="#006A6A" stroke-width="0.225"/>
<circle cx="0.315" cy="4.72516" r="0.2025" stroke="#006A6A" stroke-width="0.225"/>
<path d="M0.630937 4.72406H0.900937V3.91406H0.585938" stroke="#006A6A" stroke-width="0.225" stroke-linecap="square"/>
<path d="M0.902344 4.31934H1.21734" stroke="#006A6A" stroke-width="0.225" stroke-linecap="square"/>
<circle cx="0.315" cy="0.315" r="0.2025" transform="matrix(-1 0 0 1 6.25391 3.59961)" stroke="#006A6A" stroke-width="0.225"/>
<circle cx="0.315" cy="0.315" r="0.2025" transform="matrix(-1 0 0 1 6.25391 4.41016)" stroke="#006A6A" stroke-width="0.225"/>
<path d="M5.62688 4.72406H5.35688V3.91406H5.67188" stroke="#006A6A" stroke-width="0.225" stroke-linecap="square"/>
<path d="M5.35547 4.31934H5.04047" stroke="#006A6A" stroke-width="0.225" stroke-linecap="square"/>
<path d="M1.62109 2.92527V2.65527" stroke="#67D168" stroke-width="0.225" stroke-linecap="round"/>
<path d="M1.62109 1.52945L1.62109 1.43945" stroke="#67D168" stroke-width="0.225" stroke-linecap="round"/>
<path d="M1.62109 2.34078L1.62109 1.80078" stroke="#67D168" stroke-width="0.225" stroke-linecap="round"/>
<path d="M4.68359 3.60023L4.68359 3.24023" stroke="#67D168" stroke-width="0.225" stroke-linecap="round"/>
<path d="M4.68359 2.34L4.68359 2.25" stroke="#67D168" stroke-width="0.225" stroke-linecap="round"/>
<path d="M4.68359 2.87922L4.68359 2.69922" stroke="#67D168" stroke-width="0.225" stroke-linecap="round"/>
<path d="M2.66289 1.65206C2.90732 1.40445 3.16362 1.22166 3.37697 1.12471C3.48392 1.07612 3.57481 1.05238 3.64441 1.04841C3.71391 1.04447 3.7499 1.06067 3.76821 1.07868C3.78649 1.09672 3.80312 1.13242 3.80008 1.20208C3.79704 1.27175 3.77448 1.36282 3.72723 1.47049C3.63306 1.68509 3.45361 1.94367 3.20914 2.19131C2.96467 2.43894 2.70842 2.62173 2.49506 2.71866C2.38804 2.76728 2.29723 2.79103 2.22762 2.79497C2.15805 2.79889 2.12209 2.78273 2.10382 2.76469C2.08558 2.74662 2.06892 2.71083 2.07195 2.64129C2.07501 2.57164 2.09757 2.48051 2.1448 2.37289C2.23896 2.1583 2.41844 1.8997 2.66289 1.65206Z" stroke="#006A6A" stroke-width="0.225"/>
<path d="M2.11719 2.835L2.34219 3.06C2.46969 3.15 2.90019 3.1545 3.60219 2.4525C4.30419 1.7505 4.09719 1.305 4.09719 1.305L3.82719 1.125" stroke="#006A6A" stroke-width="0.225" stroke-linecap="round"/>
<path d="M3.10645 3.80176C3.55976 3.80176 3.96656 3.84643 4.25684 3.91699C4.40287 3.95251 4.51393 3.99333 4.58496 4.03418C4.66336 4.07933 4.65927 4.1039 4.65918 4.09473C4.65918 4.08482 4.66392 4.10878 4.58496 4.1543C4.51393 4.19515 4.40287 4.23596 4.25684 4.27148C3.96655 4.34206 3.55981 4.38672 3.10645 4.38672C2.6531 4.38672 2.24634 4.34205 1.95605 4.27148C1.81002 4.23596 1.69896 4.19515 1.62793 4.1543C1.54891 4.10876 1.55371 4.08481 1.55371 4.09473C1.55362 4.10391 1.54947 4.07935 1.62793 4.03418C1.69896 3.99333 1.81002 3.95251 1.95605 3.91699C2.24633 3.84644 2.65315 3.80176 3.10645 3.80176Z" stroke="#006A6A" stroke-width="0.225"/>
<path d="M4.67969 4.36465V4.13965" stroke="#006A6A" stroke-width="0.225" stroke-linecap="round"/>
<path d="M3.10547 4.59008V4.45508" stroke="#006A6A" stroke-width="0.225" stroke-linecap="round"/>
<path d="M1.57812 4.36555V4.18555" stroke="#006A6A" stroke-width="0.225" stroke-linecap="round"/>
<path d="M1.57812 4.63477V4.81477C1.63813 4.90477 2.02813 5.08477 3.10813 5.08477C4.18813 5.08477 4.60813 4.90477 4.68313 4.81477V4.63477" stroke="#006A6A" stroke-width="0.225" stroke-linecap="round"/>
</svg>
