<svg width="77" height="69" viewBox="0 0 77 69" fill="none" xmlns="http://www.w3.org/2000/svg">
<path d="M65.45 15.3333H61.6V11.5C61.6 8.45001 60.3831 5.52494 58.2171 3.36827C56.051 1.2116 53.1133 0 50.05 0H11.55C8.48675 0 5.54896 1.2116 3.38292 3.36827C1.21687 5.52494 0 8.45001 0 11.5V57.5C0 60.55 1.21687 63.4751 3.38292 65.6317C5.54896 67.7884 8.48675 69 11.55 69H65.45C68.5133 69 71.451 67.7884 73.6171 65.6317C75.7831 63.4751 77 60.55 77 57.5V26.8333C77 23.7833 75.7831 20.8583 73.6171 18.7016C71.451 16.5449 68.5133 15.3333 65.45 15.3333ZM11.55 7.66667H50.05C51.0711 7.66667 52.0503 8.07053 52.7724 8.78942C53.4944 9.50831 53.9 10.4833 53.9 11.5V15.3333H11.55C10.5289 15.3333 9.54965 14.9295 8.82764 14.2106C8.10562 13.4917 7.7 12.5167 7.7 11.5C7.7 10.4833 8.10562 9.50831 8.82764 8.78942C9.54965 8.07053 10.5289 7.66667 11.55 7.66667ZM69.3 46H65.45C64.4289 46 63.4496 45.5961 62.7276 44.8772C62.0056 44.1584 61.6 43.1833 61.6 42.1667C61.6 41.15 62.0056 40.175 62.7276 39.4561C63.4496 38.7372 64.4289 38.3333 65.45 38.3333H69.3V46ZM69.3 30.6667H65.45C62.3867 30.6667 59.449 31.8783 57.2829 34.0349C55.1169 36.1916 53.9 39.1167 53.9 42.1667C53.9 45.2167 55.1169 48.1417 57.2829 50.2984C59.449 52.4551 62.3867 53.6667 65.45 53.6667H69.3V57.5C69.3 58.5167 68.8944 59.4917 68.1724 60.2106C67.4503 60.9295 66.4711 61.3333 65.45 61.3333H11.55C10.5289 61.3333 9.54965 60.9295 8.82764 60.2106C8.10562 59.4917 7.7 58.5167 7.7 57.5V22.3483C8.93688 22.7816 10.2388 23.0019 11.55 23H65.45C66.4711 23 67.4503 23.4039 68.1724 24.1228C68.8944 24.8416 69.3 25.8167 69.3 26.8333V30.6667Z" fill="url(#paint0_linear_4_19924)"/>
<defs>
<linearGradient id="paint0_linear_4_19924" x1="38.5" y1="0" x2="38.5" y2="95.7472" gradientUnits="userSpaceOnUse">
<stop stop-color="white"/>
<stop offset="1" stop-color="white" stop-opacity="0"/>
</linearGradient>
</defs>
</svg>
