<svg width="71" height="70" viewBox="0 0 71 70" fill="none" xmlns="http://www.w3.org/2000/svg">
<path d="M33.1342 62.983C26.8706 62.9867 20.7601 61.0508 15.642 57.4403C10.5237 53.8299 6.64979 48.723 4.55177 42.8215C2.45387 36.9198 2.23561 30.5135 3.92676 24.4826H10.0998C10.5789 24.4831 10.967 24.8712 10.9675 25.3503V29.7004C10.967 30.3321 11.1539 30.9504 11.5055 31.4759L15.3316 37.2145H15.331C15.4665 37.4181 15.5097 37.6686 15.4508 37.9056L14.6847 40.9702V40.9707C14.4998 41.7113 14.5862 42.4942 14.9274 43.1775L16.5477 46.4172H16.5471C16.9248 47.1781 17.5914 47.7568 18.3982 48.0229L20.1337 48.601H20.1332C20.3921 48.688 20.5957 48.8912 20.6827 49.15L22.2306 53.7949C22.5535 54.7641 23.3202 55.5209 24.2937 55.8313C25.2671 56.1422 26.3301 55.9693 27.1552 55.3667C27.9802 54.7641 28.4677 53.8036 28.4677 52.7817V48.2962C28.4677 48.1613 28.4995 48.029 28.5594 47.9082L30.463 44.1003V44.1008C30.6849 43.656 30.8005 43.1659 30.801 42.669V38.1835C30.8 37.3346 30.4625 36.521 29.8624 35.921C29.2624 35.321 28.4488 34.9835 27.5999 34.9824H22.7249C22.3957 34.9834 22.0952 34.7975 21.9489 34.5027L20.6327 31.8709C20.5113 31.6262 20.5113 31.3392 20.6327 31.0944L22.2967 27.7667L22.2962 27.7673C22.5181 27.3225 22.6337 26.8324 22.6342 26.3355V25.3501C22.6347 24.8709 23.0228 24.4829 23.5019 24.4824H24.6379C24.7311 24.4824 24.8233 24.4975 24.9118 24.5266L27.2988 25.322C28.104 25.5902 28.9832 25.5282 29.7431 25.1495L33.2265 23.4074C33.6707 23.1845 34.0567 22.8621 34.3557 22.4652L36.277 19.9026C36.8051 19.199 37.0202 18.3089 36.8718 17.4417C36.7234 16.5745 36.2249 15.8067 35.4926 15.3187L34.2936 14.5203C33.7681 14.1687 33.1504 13.9817 32.5187 13.9822H28.9478C28.8129 13.9822 28.6806 13.9505 28.5598 13.8906L25.378 12.2999C24.3504 11.7889 23.128 11.865 22.1717 12.4994L21.5952 12.8837C21.0587 13.24 20.3352 13.0952 19.9774 12.5603L19.631 12.041C18.9826 11.066 17.8894 10.4811 16.719 10.4822H12.4586C17.9873 5.31241 25.2514 2.39985 32.8201 2.31705C40.389 2.23475 47.715 4.98894 53.355 10.0374L54.9113 8.29885C49.0998 3.10919 41.6248 0.168487 33.8351 0.00701865C26.0454 -0.154437 18.4549 2.47425 12.4335 7.41857C6.41208 12.3629 2.35684 19.2968 0.999486 26.9681C-0.357863 34.6401 1.0724 42.5443 5.0318 49.2537C8.99118 55.9637 15.2189 61.0372 22.5907 63.5579C29.9626 66.0787 37.9935 65.8814 45.2323 63.0006L44.3677 60.8334V60.8339C40.7942 62.259 36.9812 62.988 33.1337 62.9812L33.1342 62.983ZM17.6887 13.3345L18.0351 13.8537V13.8543C18.5502 14.6267 19.3507 15.1631 20.2611 15.345C21.171 15.5272 22.1163 15.3403 22.8887 14.8252L23.4648 14.4413V14.4408C23.7242 14.2689 24.0554 14.2481 24.3341 14.3871L27.5158 15.9778L27.5153 15.9773C27.9601 16.1992 28.4502 16.3148 28.9471 16.3153H32.5179C32.6893 16.3153 32.8565 16.3659 32.9992 16.4612L34.1976 17.2596C34.3955 17.3924 34.5304 17.6003 34.5711 17.8357C34.6112 18.0706 34.5528 18.3112 34.4101 18.5023L32.4893 21.0633C32.408 21.1716 32.3028 21.2591 32.182 21.3201L28.6992 23.0622V23.0617C28.4934 23.1643 28.2549 23.181 28.0366 23.1086L25.6481 22.3127C25.322 22.2039 24.9809 22.1487 24.6371 22.1487H23.5012C22.6522 22.1497 21.8386 22.4872 21.2386 23.0872C20.6386 23.6872 20.3011 24.5008 20.3001 25.3498V26.3352C20.3001 26.4701 20.2683 26.6024 20.2084 26.7232L18.5444 30.0514C18.0965 30.953 18.0965 32.0118 18.5444 32.914L19.8611 35.5463C20.1251 36.0791 20.5335 36.5275 21.0397 36.84C21.5455 37.1531 22.1293 37.3176 22.7241 37.3156H27.5991C28.0783 37.3161 28.4663 37.7041 28.4669 38.1833V42.6688C28.4669 42.8037 28.4351 42.936 28.3752 43.0568L26.4716 46.8647V46.8642C26.2497 47.309 26.1341 47.7991 26.1335 48.296V52.7815C26.1335 53.207 25.8252 53.5695 25.4054 53.6378C24.9856 53.7065 24.5783 53.4602 24.4434 53.057L22.8955 48.4122V48.4116C22.5747 47.4569 21.8252 46.708 20.8704 46.3871L19.1355 45.8095C18.9178 45.7355 18.7376 45.5793 18.6339 45.3735L17.0136 42.1334C16.9209 41.9485 16.8975 41.7365 16.9475 41.536L17.7137 38.4719V38.4714C17.9319 37.5969 17.7715 36.6703 17.272 35.9198L13.4459 30.1817C13.3511 30.039 13.3001 29.8713 13.3001 29.6999V25.3499C13.2991 24.5009 12.9615 23.6873 12.3615 23.0873C11.7615 22.4873 10.9479 22.1498 10.099 22.1488H4.67545C5.94525 18.7305 7.82082 15.5684 10.2115 12.8153H16.7179C17.1085 12.8148 17.4726 13.0101 17.6887 13.3346L17.6887 13.3345Z" fill="url(#paint0_linear_4_21553)"/>
<path d="M48.2995 46.6499H46.7437C46.4916 46.6494 46.2463 46.5676 46.0442 46.4171L42.7469 43.9441C42.5062 43.7644 42.3448 43.4983 42.2963 43.2024L41.4302 38.0054L41.4307 38.0049C41.2896 37.1544 40.838 36.3856 40.164 35.8476L35.9046 32.4397C35.627 32.2188 35.4656 31.8829 35.4661 31.5277V29.2312C35.4656 28.8411 35.6609 28.4771 35.9854 28.2609L37.8589 27.0125L37.8594 27.012C38.0505 26.8838 38.2755 26.8156 38.5057 26.8161H39.4776C40.2584 26.8172 41.0172 26.5562 41.6329 26.076C42.248 25.5953 42.6849 24.9229 42.8735 24.165L43.5365 21.5119C43.5568 21.4302 43.586 21.351 43.6246 21.2755L45.1986 18.1276C45.3949 17.7317 45.7991 17.4812 46.2413 17.4828H48.2997V15.1494H46.2413C45.5913 15.1473 44.9532 15.3276 44.3997 15.6692C43.8465 16.0114 43.4002 16.5015 43.1111 17.0838L41.5382 20.2302C41.4236 20.4589 41.3345 20.7 41.2725 20.9479L40.61 23.5985V23.599C40.4808 24.1188 40.0136 24.4834 39.4777 24.4829H38.5058C37.8147 24.4824 37.1391 24.6865 36.5646 25.0709L34.6916 26.3194C33.7166 26.9678 33.1318 28.061 33.1328 29.2314V31.5278C33.1307 32.5919 33.6146 33.5986 34.4464 34.2612L38.7068 37.67C38.9318 37.8492 39.0824 38.1054 39.1292 38.3893L39.9954 43.5858H39.9949C40.1412 44.4743 40.6261 45.2718 41.3476 45.8109L44.644 48.2833C45.2508 48.7364 45.9867 48.9817 46.744 48.9833H48.2998L48.2995 46.6499Z" fill="url(#paint1_linear_4_21553)"/>
<path d="M66.9686 50.0014V19.8158C66.9686 16.898 65.4118 14.2021 62.8852 12.7433C60.3586 11.2845 57.245 11.2845 54.7184 12.7433C52.1919 14.2021 50.6351 16.898 50.6351 19.8158V50.0014C48.4157 52.1764 47.1558 55.1474 47.135 58.2551C47.1147 61.363 48.3345 64.35 50.5247 66.5552C52.7148 68.7599 55.694 69.9995 58.8018 69.9995C61.9096 69.9995 64.8888 68.7599 67.079 66.5552C69.2691 64.35 70.4889 61.363 70.4686 58.2551C70.4478 55.1472 69.1879 52.1764 66.9686 50.0014ZM58.8018 67.6497C56.2674 67.6528 53.8408 66.6236 52.0815 64.7996C50.3216 62.9751 49.3809 60.5132 49.4746 57.9807C49.5689 55.4479 50.6903 53.0624 52.5804 51.3744L52.9684 51.026V19.8163C52.9684 17.7324 54.0804 15.8063 55.8851 14.7646C57.6898 13.7224 59.9139 13.7224 61.7185 14.7646C63.5232 15.8063 64.6352 17.7324 64.6352 19.8163V51.026L65.0233 51.3739V51.3744C66.9134 53.0624 68.0348 55.4479 68.129 57.9807C68.2228 60.513 67.2822 62.9751 65.5222 64.7996C63.7629 66.6236 61.3362 67.6527 58.8019 67.6497H58.8018Z" fill="url(#paint2_linear_4_21553)"/>
<path d="M62.3043 53.6741V19.8164C62.3043 18.5659 61.6371 17.4106 60.5542 16.7852C59.4714 16.1602 58.137 16.1602 57.0542 16.7852C55.9714 17.4107 55.3042 18.5658 55.3042 19.8164V53.6741C53.9896 54.6601 53.152 56.1544 52.9968 57.7898C52.8416 59.4253 53.3833 61.0507 54.489 62.2658C55.5942 63.4815 57.1614 64.1741 58.8041 64.1741C60.4468 64.1741 62.014 63.4814 63.1192 62.2658C64.2249 61.0507 64.7665 59.4251 64.6113 57.7898C64.4561 56.1543 63.6186 54.66 62.304 53.6741H62.3043ZM58.8042 18.6497C59.448 18.6508 59.9699 19.1726 59.9709 19.8164V25.6498H57.6375V19.8164C57.6386 19.1726 58.1605 18.6508 58.8042 18.6497ZM58.8042 61.8169C57.8761 61.8158 56.9865 61.4466 56.3302 60.7908C55.6744 60.1346 55.3052 59.2449 55.3041 58.3168C55.3041 57.7048 55.4666 57.1032 55.7744 56.5746C56.0823 56.0455 56.525 55.608 57.0578 55.3059L57.6375 54.9684V27.9827H59.9709V54.9684L60.5506 55.3059V55.3054C61.0834 55.6074 61.5261 56.0455 61.8339 56.5746C62.1422 57.1033 62.3042 57.7049 62.3042 58.3168C62.3032 59.2449 61.9339 60.1346 61.2782 60.7908C60.6219 61.4466 59.7323 61.8158 58.8041 61.8169H58.8042Z" fill="url(#paint3_linear_4_21553)"/>
<defs>
<linearGradient id="paint0_linear_4_21553" x1="27.7057" y1="0" x2="27.7057" y2="86.867" gradientUnits="userSpaceOnUse">
<stop stop-color="white"/>
<stop offset="1" stop-color="white" stop-opacity="0"/>
</linearGradient>
<linearGradient id="paint1_linear_4_21553" x1="40.7163" y1="15.1494" x2="40.7163" y2="60.1477" gradientUnits="userSpaceOnUse">
<stop stop-color="white"/>
<stop offset="1" stop-color="white" stop-opacity="0"/>
</linearGradient>
<linearGradient id="paint2_linear_4_21553" x1="58.8018" y1="11.6492" x2="58.8018" y2="89.2538" gradientUnits="userSpaceOnUse">
<stop stop-color="white"/>
<stop offset="1" stop-color="white" stop-opacity="0"/>
</linearGradient>
<linearGradient id="paint3_linear_4_21553" x1="58.8041" y1="16.3164" x2="58.8041" y2="79.966" gradientUnits="userSpaceOnUse">
<stop stop-color="white"/>
<stop offset="1" stop-color="white" stop-opacity="0"/>
</linearGradient>
</defs>
</svg>
